<?xml version="1.0" encoding="utf-8"?>
<!-- Generator: Adobe Illustrator 21.0.0, SVG Export Plug-In . SVG Version: 6.00 Build 0)  -->
<!DOCTYPE svg PUBLIC "-//W3C//DTD SVG 1.1//EN" "http://www.w3.org/Graphics/SVG/1.1/DTD/svg11.dtd">
<svg version="1.1" id="Laag_1" xmlns="http://www.w3.org/2000/svg" xmlns:xlink="http://www.w3.org/1999/xlink" x="0px" y="0px"
	 width="1275px" height="850px" viewBox="0 0 1275 850" style="enable-background:new 0 0 1275 850;" xml:space="preserve">
<style type="text/css">
	.st0{fill:none;}
	.st1{fill:#E74536;}
	.st2{fill-rule:evenodd;clip-rule:evenodd;fill:#2175D9;}
</style>
<g>
	<rect class="st0" width="1275" height="850"/>
</g>
<rect x="0.3" class="st0" width="1274" height="850"/>
<path class="st1" d="M757.3,323.2c4.3-4.8,7.6-9.4,11.9-13.1c25.2-21.4,53.9-27.4,84.9-16.2c31,11.2,49.8,34,55.1,66.6
	c4.8,29.6-4.7,54.8-26,75.8c-13.1,12.9-26.1,25.9-39.1,38.9c-17.9,17.9-35.8,35.7-53.7,53.6c-19.9,19.8-48.5,19.9-68.3,0
	c-30.9-30.9-61.5-62-92.4-92.9c-17.6-17.6-26.8-38.6-26.7-63.5c0.2-39.9,30.9-75.9,70.3-82.2c29.3-4.7,54.6,3.7,75.8,24.4
	C751.4,316.9,753.8,319.5,757.3,323.2z"/>
<path class="st2" d="M352.2,704.4l192.4-497.7c6-17,24.9-26.1,41.9-20.1l0,0c17,6,26.1,24.9,20.1,41.9L414.2,726.2
	c-6,17-24.9,26.1-41.9,20.1l0,0C355.2,740.3,346.2,721.4,352.2,704.4z"/>
<path class="st2" d="M360.9,529.7L184.6,402.8L360.8,276c15.2-11,18.7-32.4,7.8-47.7l0,0c-11-15.2-32.4-18.7-47.7-7.8L106.8,374.8
	c-10.3,7.4-15.3,19.7-14,31.5c0.9,9.5,5.7,18.7,14,24.7L321,585.2c15.2,11,36.7,7.5,47.7-7.8v0C379.6,562.1,376.1,540.7,360.9,529.7
	z"/>
<path class="st2" d="M1182.4,399.4c-0.9-9.5-5.7-18.7-14-24.7L954.1,220.5c-15.2-11-36.7-7.5-47.7,7.8l0,0
	c-11,15.2-7.5,36.7,7.8,47.7l176.3,126.9L914.3,529.8c-15.2,11-18.7,32.4-7.8,47.7l0,0c11,15.2,32.4,18.7,47.7,7.8L1168.4,431
	C1178.8,423.5,1183.7,411.3,1182.4,399.4z"/>
<g>
</g>
<g>
</g>
<g>
</g>
<g>
</g>
<g>
</g>
<g>
</g>
<g>
</g>
<g>
</g>
<g>
</g>
<g>
</g>
<g>
</g>
<g>
</g>
<g>
</g>
<g>
</g>
<g>
</g>
</svg>
